<?xml version="1.0" standalone="no"?>
<!DOCTYPE svg PUBLIC "-//W3C//DTD SVG 20010904//EN"
 "http://www.w3.org/TR/2001/REC-SVG-20010904/DTD/svg10.dtd">
<svg version="1.0" xmlns="http://www.w3.org/2000/svg"
 width="588.000000pt" height="226.000000pt" viewBox="0 0 588.000000 226.000000"
 preserveAspectRatio="xMidYMid meet">

<g transform="translate(0.000000,226.000000) scale(0.100000,-0.100000)"
fill="#000000" stroke="none">
<path d="M0 1130 l0 -1130 2940 0 2940 0 0 1130 0 1130 -2940 0 -2940 0 0
-1130z m3787 710 c57 -13 133 -60 133 -82 0 -23 -1 -23 -56 12 -51 32 -110 48
-124 34 -8 -8 74 -132 120 -180 17 -18 108 -44 154 -44 11 0 -4 42 -21 62 -16
18 -10 54 7 43 6 -3 25 -30 44 -59 37 -58 94 -116 114 -116 7 0 12 14 12 36 0
98 61 181 175 235 78 38 96 37 118 -3 90 -171 45 -326 -119 -404 -63 -30 -81
-48 -65 -67 17 -21 34 -165 26 -227 -14 -122 -79 -246 -173 -330 -93 -83 -200
-123 -332 -124 -115 -1 -222 34 -319 105 -46 33 -119 126 -149 190 -46 96 -67
242 -42 290 21 38 30 18 30 -69 0 -85 16 -163 43 -214 74 -137 192 -230 329
-259 67 -15 212 -5 270 18 145 56 252 174 299 328 15 49 14 207 -2 249 -41
111 -60 143 -116 200 -57 58 -77 65 -97 34 -8 -14 0 -27 46 -76 64 -67 91
-118 113 -216 15 -62 15 -75 0 -140 -18 -83 -27 -104 -77 -172 -75 -104 -185
-165 -304 -167 -40 -1 -76 2 -80 6 -14 13 16 25 55 21 75 -7 211 55 281 127
65 69 112 218 92 293 -11 41 -25 42 -64 7 -32 -29 -33 -31 -33 -108 0 -68 -4
-85 -25 -116 -27 -41 -93 -79 -119 -70 -45 16 -51 32 -51 137 0 56 -4 107 -9
115 -7 10 -32 15 -91 15 -78 1 -83 2 -106 31 -37 47 -40 79 -10 137 15 28 24
53 21 56 -3 3 -35 16 -73 29 l-67 24 -31 -35 c-17 -19 -39 -51 -49 -70 -19
-35 -19 -35 3 -79 24 -49 36 -61 85 -87 27 -15 32 -23 31 -53 -1 -20 -11 -56
-22 -80 l-21 -45 19 -53 c11 -30 20 -66 20 -81 0 -20 8 -31 28 -42 16 -8 34
-22 41 -30 12 -14 10 -16 -7 -16 -55 0 -170 99 -214 184 -80 156 -59 327 57
466 31 37 34 45 23 60 -7 9 -41 54 -75 99 -36 47 -63 93 -63 106 0 29 53 72
147 121 97 51 181 64 270 44z m-1843 -266 c70 -18 86 -29 86 -56 0 -28 -24
-32 -95 -14 -84 21 -159 20 -228 -3 -161 -53 -230 -168 -230 -381 -1 -144 27
-224 106 -304 82 -83 222 -108 370 -67 l68 19 10 -25 c5 -13 9 -26 9 -28 0
-14 -86 -45 -152 -55 -173 -26 -333 37 -415 164 -55 85 -73 158 -73 297 0 124
19 207 65 285 30 51 105 121 153 142 96 43 222 53 326 26z m3476 -31 c0 -18
-47 -96 -240 -398 -244 -380 -252 -395 -237 -407 1 -1 110 -5 242 -8 237 -5
240 -5 243 -27 2 -14 -4 -26 -18 -33 -27 -14 -559 -12 -577 3 -7 5 -13 16 -13
23 0 13 82 164 103 189 12 14 77 116 187 290 52 83 104 164 117 181 13 17 23
34 23 38 0 3 13 24 29 47 50 68 47 69 -195 69 -205 0 -214 1 -224 21 -25 45
-8 48 274 51 271 3 286 1 286 -39z m-4306 31 c25 -10 20 -51 -6 -58 -13 -3
-113 -6 -223 -6 -143 0 -204 -3 -213 -12 -17 -17 -17 -299 0 -316 9 -9 72 -12
221 -12 l208 0 -3 -32 -3 -33 -204 -3 c-130 -1 -209 -6 -218 -13 -16 -14 -19
-314 -3 -339 8 -12 49 -16 237 -20 227 -5 228 -5 231 -27 3 -17 -4 -26 -24
-33 -30 -12 -494 -12 -513 -1 -12 8 -17 883 -6 902 7 10 493 13 519 3z m1293
-6 c4 -7 10 -98 13 -203 l5 -190 233 -3 c181 -2 233 0 237 10 2 7 6 99 9 203
2 105 5 191 5 193 1 2 16 2 34 0 l32 -3 0 -450 0 -450 -29 -3 c-16 -2 -32 2
-36 8 -4 7 -7 99 -7 205 0 106 -3 198 -7 204 -10 16 -462 16 -472 -1 -4 -6 -6
-79 -5 -162 3 -193 -5 -253 -31 -262 -12 -4 -26 0 -36 9 -13 14 -15 72 -16
449 -1 238 3 439 7 446 5 6 19 12 32 12 13 0 27 -6 32 -12z"/>
<path d="M3599 1791 l-22 -18 47 -62 c27 -34 60 -67 74 -72 37 -14 94 -16 99
-3 2 6 -24 48 -58 93 -67 88 -93 100 -140 62z"/>
<path d="M3478 1739 c-64 -33 -51 -52 43 -67 45 -7 83 -11 86 -8 3 3 -8 25
-23 50 -32 51 -48 54 -106 25z"/>
<path d="M4318 1728 c-27 -16 -48 -35 -48 -41 0 -6 10 -31 22 -55 20 -42 22
-44 36 -26 14 20 44 83 56 120 10 34 -14 34 -66 2z"/>
<path d="M4422 1718 c-5 -7 -21 -41 -35 -75 -24 -58 -24 -63 -8 -63 10 0 35 7
56 16 l37 15 -6 52 c-10 69 -20 83 -44 55z"/>
<path d="M3430 1638 c0 -24 59 -98 78 -98 21 0 100 66 90 75 -8 8 -72 24 -130
32 -29 4 -38 2 -38 -9z"/>
<path d="M4227 1644 c-20 -34 -25 -93 -13 -152 8 -35 16 -65 18 -68 8 -7 38 7
38 18 0 6 7 25 16 44 15 31 15 37 0 68 -9 19 -16 38 -16 43 -1 15 -37 56 -43
47z"/>
<path d="M3598 1557 c-32 -23 -57 -47 -58 -54 0 -12 67 -63 83 -63 17 0 167
115 167 128 0 17 -43 32 -93 32 -33 -1 -54 -9 -99 -43z"/>
<path d="M3777 1504 c-49 -36 -86 -71 -84 -77 11 -32 196 5 248 50 8 7 20 13
26 13 13 0 48 39 41 46 -6 5 -114 33 -133 34 -6 0 -50 -30 -98 -66z"/>
<path d="M4392 1539 c-42 -16 -56 -28 -72 -59 -20 -39 -25 -71 -14 -83 10 -10
103 53 129 87 24 31 34 77 18 75 -5 0 -32 -9 -61 -20z"/>
<path d="M3935 1434 c-26 -14 -72 -31 -102 -39 -133 -35 -194 -128 -126 -191
28 -26 37 -26 134 -8 48 9 63 -24 69 -145 3 -58 9 -112 13 -118 14 -23 45 -14
82 22 34 34 35 38 35 110 0 91 10 115 66 155 24 17 44 38 44 46 0 42 -86 156
-137 183 -28 14 -22 15 -78 -15z"/>
<path d="M3433 1208 c-28 -35 -17 -174 18 -232 10 -17 23 -40 28 -51 5 -11 18
-28 29 -38 18 -16 20 -16 26 -2 3 9 -1 29 -9 45 -21 40 -19 58 10 118 14 29
25 56 25 62 0 5 -18 19 -40 30 -23 12 -49 34 -59 51 -14 23 -20 27 -28 17z"/>
</g>
</svg>
